M48
; DRILL file {KiCad 9.0.1} date 2025-10-13T18:55:54-0400
; FORMAT={-:-/ absolute / inch / decimal}
; #@! TF.CreationDate,2025-10-13T18:55:54-04:00
; #@! TF.GenerationSoftware,Kicad,Pcbnew,9.0.1
; #@! TF.FileFunction,Plated,1,4,PTH
FMAT,2
INCH
; #@! TA.AperFunction,Plated,PTH,ViaDrill
T1C0.0118
; #@! TA.AperFunction,Plated,PTH,ViaDrill
T2C0.0142
; #@! TA.AperFunction,Plated,PTH,ComponentDrill
T3C0.0256
; #@! TA.AperFunction,Plated,PTH,ComponentDrill
T4C0.0276
; #@! TA.AperFunction,Plated,PTH,ComponentDrill
T5C0.0295
; #@! TA.AperFunction,Plated,PTH,ComponentDrill
T6C0.0433
; #@! TA.AperFunction,Plated,PTH,ComponentDrill
T7C0.1260
%
G90
G05
T1
X0.815Y-1.311
X0.815Y-1.3543
X0.8248Y-2.6181
X0.8248Y-2.7028
X0.8268Y-2.5394
X0.8287Y-3.3445
X0.8307Y-2.8189
X0.8313Y-2.8566
X0.8315Y-1.9803
X0.8366Y-1.6811
X0.8386Y-2.2244
X0.8386Y-3.0354
X0.8396Y-3.6378
X0.8396Y-1.1594
X0.8425Y-2.9409
X0.8425Y-3.122
X0.8465Y-2.1772
X0.8504Y-1.8681
X0.8504Y-2.9154
X0.8524Y-2.4823
X0.8531Y-2.3118
X0.8543Y-2.8661
X0.8612Y-2.5652
X0.8622Y-2.4154
X0.8661Y-1.7441
X0.8661Y-2.4606
X0.8661Y-3.0413
X0.8701Y-1.1496
X0.8711Y-1.0502
X0.874Y-3.3701
X0.874Y-3.5
X0.874Y-2.5866
X0.8937Y-2.5236
X0.8976Y-2.6535
X0.8976Y-2.7087
X0.9016Y-2.7362
X0.9055Y-1.7402
X0.9173Y-2.1402
X0.9173Y-2.9882
X0.9213Y-3.6378
X0.9213Y-2.5181
X0.9252Y-1.4055
X0.9291Y-1.2756
X0.9291Y-1.7618
X0.9291Y-1.8189
X0.9311Y-1.6713
X0.9331Y-2.8031
X0.9335Y-2.3177
X0.937Y-1.5295
X0.937Y-1.6142
X0.9409Y-3.0315
X0.9469Y-2.5197
X0.9488Y-1.9291
X0.9547Y-3.3209
X0.9563Y-2.1433
X0.9587Y-2.563
X0.9606Y-1.0315
X0.9606Y-1.5906
X0.9646Y-1.5433
X0.9673Y-2.3189
X0.9724Y-2.7205
X0.9744Y-2.2087
X0.9803Y-2.9409
X0.9813Y-1.2805
X0.9843Y-3.4331
X0.9882Y-1.4252
X0.9882Y-3.3819
X0.9921Y-1.8931
X0.9941Y-2.6634
X0.9961Y-2.8937
X0.9961Y-3.0394
X0.997Y-2.2429
X0.997Y-1.7372
X0.9972Y-2.3004
X1.0Y-1.6181
X1.002Y-2.5157
X1.0035Y-2.3354
X1.0079Y-2.5787
X1.0118Y-2.8504
X1.0148Y-1.8258
X1.0181Y-2.3177
X1.0187Y-1.999
X1.0197Y-3.0276
X1.0205Y-2.4217
X1.0236Y-2.185
X1.0236Y-2.248
X1.0236Y-3.4685
X1.0276Y-1.5827
X1.0315Y-2.9843
X1.0316Y-2.4714
X1.0325Y-1.2874
X1.0354Y-1.0394
X1.0394Y-2.4928
X1.0433Y-3.561
X1.0472Y-3.1545
X1.0541Y-2.5148
X1.0551Y-1.3622
X1.0571Y-3.8268
X1.059Y-2.6242
X1.0591Y-3.6772
X1.063Y-2.7185
X1.065Y-2.6713
X1.0679Y-2.6474
X1.0748Y-1.0384
X1.0748Y-1.498
X1.0787Y-1.7283
X1.0787Y-1.7677
X1.0817Y-1.2844
X1.0827Y-2.5374
X1.089Y-2.4974
X1.0902Y-2.6531
X1.1024Y-2.7126
X1.1024Y-3.8858
X1.1063Y-2.4528
X1.1063Y-2.4807
X1.1177Y-0.9268
X1.1181Y-0.828
X1.1181Y-0.9587
X1.1185Y-0.889
X1.1193Y-0.8575
X1.122Y-2.0827
X1.126Y-2.7079
X1.1299Y-1.689
X1.1299Y-1.9134
X1.1339Y-3.2087
X1.1378Y-2.2008
X1.1457Y-1.0394
X1.1467Y-1.4636
X1.1467Y-2.4168
X1.1476Y-2.3937
X1.1496Y-1.2835
X1.1496Y-3.2913
X1.15Y-2.2913
X1.1516Y-2.4646
X1.1516Y-3.2598
X1.152Y-0.9276
X1.1524Y-0.8287
X1.1524Y-0.9594
X1.1528Y-0.8898
X1.1535Y-0.8583
X1.1535Y-1.7874
X1.1535Y-3.0551
X1.1535Y-3.1024
X1.1614Y-2.252
X1.1654Y-3.5709
X1.1676Y-1.0836
X1.1693Y-1.9685
X1.1693Y-2.0315
X1.1693Y-2.4134
X1.1732Y-3.374
X1.1811Y-1.7874
X1.1811Y-3.7358
X1.1816Y-2.0797
X1.185Y-2.2638
X1.187Y-1.5827
X1.189Y-1.1378
X1.189Y-2.2126
X1.189Y-2.2992
X1.1929Y-1.3622
X1.1969Y-2.1378
X1.2008Y-1.874
X1.2008Y-2.8543
X1.2028Y-2.7441
X1.2047Y-1.8031
X1.2067Y-3.124
X1.2087Y-1.189
X1.2245Y-2.8504
X1.2264Y-2.6614
X1.2283Y-1.9173
X1.2283Y-2.122
X1.2362Y-3.0236
X1.2441Y-1.2224
X1.2448Y-1.795
X1.25Y-3.8957
X1.252Y-3.2126
X1.2559Y-3.0748
X1.2598Y-2.0768
X1.2598Y-2.4311
X1.2657Y-2.6831
X1.2835Y-2.7402
X1.2874Y-3.0787
X1.2894Y-1.2677
X1.2992Y-1.689
X1.2992Y-1.9016
X1.2995Y-2.0884
X1.3031Y-3.2126
X1.3031Y-3.7142
X1.3071Y-3.8031
X1.3106Y-1.7953
X1.311Y-1.4587
X1.313Y-1.6201
X1.315Y-2.0177
X1.315Y-2.122
X1.3189Y-1.8583
X1.3209Y-3.0512
X1.3227Y-1.2778
X1.3307Y-3.0207
X1.3327Y-2.1575
X1.3346Y-1.7953
X1.3346Y-3.248
X1.3346Y-3.4902
X1.3357Y-1.327
X1.3386Y-3.7441
X1.3417Y-1.1811
X1.3426Y-1.2803
X1.3457Y-1.2323
X1.356Y-1.3311
X1.3583Y-1.1575
X1.3583Y-1.7835
X1.3583Y-1.9764
X1.3583Y-2.1929
X1.3605Y-2.2688
X1.364Y-1.2804
X1.3701Y-2.4803
X1.3702Y-1.3468
X1.3703Y-1.4365
X1.3703Y-1.3673
X1.3703Y-1.4126
X1.3706Y-1.3914
X1.374Y-2.811
X1.3789Y-1.7992
X1.3809Y-2.2791
X1.3819Y-1.2913
X1.3839Y-3.0256
X1.3898Y-2.2559
X1.3967Y-2.3937
X1.3976Y-2.4193
X1.3976Y-2.4921
X1.398Y-1.3059
X1.3996Y-3.5394
X1.4005Y-1.8068
X1.4016Y-2.7598
X1.4055Y-3.1811
X1.4094Y-2.2087
X1.4094Y-3.1417
X1.4124Y-2.2982
X1.413Y-1.3215
X1.4173Y-1.3425
X1.4173Y-1.3661
X1.4173Y-1.3898
X1.4173Y-1.4134
X1.4173Y-3.2323
X1.4173Y-1.4381
X1.4213Y-2.6772
X1.4236Y-1.215
X1.437Y-2.2933
X1.4379Y-1.9194
X1.4449Y-1.4606
X1.4488Y-3.2559
X1.4508Y-1.6102
X1.4567Y-2.4931
X1.4567Y-3.685
X1.4587Y-2.6929
X1.4606Y-2.8474
X1.4626Y-2.1654
X1.4646Y-1.8957
X1.4685Y-2.8051
X1.4724Y-2.752
X1.4724Y-3.6358
X1.4744Y-2.2657
X1.4764Y-2.3967
X1.4793Y-2.4783
X1.4882Y-3.3386
X1.4882Y-3.6102
X1.4886Y-1.2953
X1.4894Y-1.326
X1.4902Y-1.8839
X1.4913Y-1.2638
X1.4921Y-3.4114
X1.4961Y-3.5039
X1.498Y-1.8563
X1.5059Y-3.1398
X1.5079Y-1.6535
X1.5079Y-1.9823
X1.5118Y-3.3583
X1.5118Y-3.7441
X1.5157Y-3.1811
X1.5157Y-3.2087
X1.5177Y-1.8366
X1.5177Y-2.4134
X1.5177Y-2.685
X1.5189Y-1.3565
X1.5256Y-1.6929
X1.5256Y-1.9331
X1.5256Y-2.0669
X1.5256Y-2.2146
X1.5256Y-2.2992
X1.5256Y-2.3917
X1.5256Y-3.1594
X1.5276Y-2.126
X1.5293Y-1.4301
X1.5315Y-3.6122
X1.5354Y-1.811
X1.5394Y-3.311
X1.5472Y-3.7441
X1.5492Y-1.4665
X1.5541Y-2.5246
X1.5589Y-2.4147
X1.5591Y-1.4291
X1.5591Y-1.563
X1.563Y-2.4705
X1.563Y-3.4016
X1.563Y-3.4256
X1.563Y-3.8622
X1.5663Y-2.2309
X1.5672Y-3.1142
X1.5709Y-1.2531
X1.5709Y-2.1693
X1.5748Y-1.6693
X1.5748Y-2.4311
X1.5787Y-2.6614
X1.5827Y-3.1299
X1.5866Y-1.6929
X1.5866Y-3.2126
X1.5886Y-2.0157
X1.5925Y-1.7894
X1.5945Y-1.8602
X1.5945Y-2.5157
X1.6Y-2.1368
X1.6024Y-1.4843
X1.6024Y-3.2598
X1.6047Y-0.9256
X1.6051Y-0.8268
X1.6051Y-0.9575
X1.6055Y-0.8878
X1.6063Y-2.7382
X1.6067Y-0.8567
X1.6083Y-2.0787
X1.6083Y-2.1142
X1.6142Y-3.2283
X1.6152Y-2.3051
X1.6161Y-2.6949
X1.6181Y-1.0587
X1.6181Y-2.2717
X1.624Y-2.4803
X1.624Y-3.3248
X1.6258Y-3.2903
X1.6299Y-1.7205
X1.6319Y-2.4331
X1.6339Y-1.8268
X1.6339Y-3.0039
X1.6339Y-3.4173
X1.6346Y-0.9252
X1.635Y-0.8264
X1.635Y-0.9571
X1.6354Y-0.8874
X1.6366Y-0.8563
X1.6457Y-1.252
X1.6457Y-1.3031
X1.6457Y-1.3504
X1.6457Y-3.1063
X1.6535Y-1.0587
X1.6594Y-1.6772
X1.6634Y-2.4528
X1.6752Y-2.3898
X1.6791Y-2.5039
X1.6811Y-1.4331
X1.6811Y-2.3228
X1.6831Y-2.6831
X1.685Y-2.2953
X1.6909Y-3.8465
X1.6929Y-1.252
X1.6929Y-1.7638
X1.6954Y-1.3007
X1.7008Y-1.3504
X1.7028Y-2.811
X1.7087Y-1.7146
X1.7087Y-2.3189
X1.7244Y-1.5039
X1.7283Y-1.8583
X1.7283Y-2.4173
X1.7321Y-2.1241
X1.7402Y-2.2638
X1.7421Y-1.939
X1.7469Y-3.4807
X1.748Y-1.252
X1.748Y-1.3031
X1.748Y-1.3504
X1.748Y-1.6929
X1.7552Y-3.5515
X1.7591Y-3.6906
X1.7598Y-1.1155
X1.7598Y-2.3425
X1.7677Y-3.5807
X1.7717Y-1.8602
X1.7717Y-2.1988
X1.7795Y-1.815
X1.7795Y-2.7736
X1.7795Y-2.9429
X1.7795Y-3.2008
X1.7815Y-2.3642
X1.7827Y-3.3673
X1.7874Y-1.4409
X1.7874Y-1.5157
X1.7913Y-1.1999
X1.7913Y-1.3937
X1.7982Y-2.9941
X1.7992Y-2.2638
X1.7992Y-2.3228
X1.7992Y-3.6299
X1.8012Y-2.2165
X1.8051Y-1.7224
X1.811Y-1.5315
X1.8189Y-2.9409
X1.8209Y-2.811
X1.8268Y-1.6378
X1.8307Y-1.563
X1.8386Y-3.5079
X1.8386Y-3.6496
X1.8416Y-1.2152
X1.8433Y-1.0997
X1.8442Y-1.9239
X1.8445Y-1.0622
X1.8445Y-2.9331
X1.8457Y-2.024
X1.8479Y-3.0015
X1.8504Y-1.9567
X1.8504Y-1.9961
X1.8534Y-1.6862
X1.8538Y-3.4316
X1.8543Y-1.7283
X1.8543Y-2.2343
X1.8543Y-3.4843
X1.8545Y-3.4549
X1.8563Y-1.8957
X1.8583Y-2.1594
X1.8622Y-1.2677
X1.8642Y-1.935
X1.8661Y-1.9783
X1.8661Y-2.0138
X1.8661Y-3.5157
X1.8701Y-3.6102
X1.8799Y-1.487
X1.8839Y-2.3799
X1.8878Y-1.8661
X1.8898Y-1.2768
X1.8937Y-2.0551
X1.8976Y-2.8701
X1.8976Y-2.9882
X1.9016Y-2.747
X1.9016Y-3.6732
X1.9105Y-1.4405
X1.9134Y-1.8071
X1.9134Y-2.1417
X1.9154Y-1.7264
X1.9163Y-3.4085
X1.9231Y-2.2254
X1.9291Y-3.1535
X1.9291Y-3.1969
X1.9331Y-2.0472
X1.937Y-3.3268
X1.9378Y-1.4445
X1.9409Y-3.5079
X1.9425Y-1.2118
X1.9429Y-1.135
X1.9429Y-1.4724
X1.9429Y-1.5965
X1.9437Y-1.1071
X1.9444Y-2.3071
X1.9445Y-1.1839
X1.9488Y-3.4154
T2
X0.8789Y-3.4252
X0.8789Y-3.4685
X0.9222Y-3.4252
X1.437Y-3.374
X1.4371Y-3.4154
X1.4646Y-3.7362
X1.5768Y-3.5339
X1.5969Y-3.5768
X1.5984Y-3.6283
X1.6138Y-3.6618
X1.6252Y-3.5957
X1.628Y-3.5378
X1.6291Y-3.6299
X1.6811Y-3.6811
T3
X1.2287Y-2.5563
X1.2287Y-2.6063
X1.2787Y-2.5563
X1.2787Y-2.6063
X1.3287Y-2.5563
X1.3287Y-2.6063
X1.4661Y-2.5563
X1.4661Y-2.6063
X1.5161Y-2.5563
X1.5161Y-2.6063
X1.5661Y-2.5563
X1.5661Y-2.6063
X1.6161Y-2.5563
X1.6161Y-2.6063
X1.6661Y-2.6063
X1.6661Y-2.5563
T4
X1.4291Y-3.7205
X1.4291Y-3.8898
X1.6181Y-3.7205
X1.6181Y-3.8898
T5
X1.122Y-3.7933
X1.2008Y-3.7933
T6
X1.0827Y-2.8228
X1.0827Y-2.9213
X1.0827Y-3.0197
X1.0827Y-3.1181
X1.0827Y-3.2165
X1.0827Y-3.315
X1.0827Y-3.4134
X1.0827Y-3.5118
X1.0827Y-3.6102
X1.685Y-2.7598
X1.685Y-2.8583
X1.685Y-2.9567
X1.685Y-3.0551
X1.685Y-3.1535
X1.685Y-3.252
X1.685Y-3.3504
X1.685Y-3.4488
X1.685Y-3.5472
T7
X0.9055Y-0.9055
X0.9055Y-3.8189
X1.8504Y-0.9055
X1.8504Y-2.5669
X1.8504Y-3.8189
M30
