%TF.GenerationSoftware,KiCad,Pcbnew,9.0.1*%
%TF.CreationDate,2025-10-09T14:44:29-04:00*%
%TF.ProjectId,OshTelemega,4f736854-656c-4656-9d65-67612e6b6963,rev?*%
%TF.SameCoordinates,Original*%
%TF.FileFunction,Soldermask,Bot*%
%TF.FilePolarity,Negative*%
%FSLAX46Y46*%
G04 Gerber Fmt 4.6, Leading zero omitted, Abs format (unit mm)*
G04 Created by KiCad (PCBNEW 9.0.1) date 2025-10-09 14:44:29*
%MOMM*%
%LPD*%
G01*
G04 APERTURE LIST*
G04 Aperture macros list*
%AMRoundRect*
0 Rectangle with rounded corners*
0 $1 Rounding radius*
0 $2 $3 $4 $5 $6 $7 $8 $9 X,Y pos of 4 corners*
0 Add a 4 corners polygon primitive as box body*
4,1,4,$2,$3,$4,$5,$6,$7,$8,$9,$2,$3,0*
0 Add four circle primitives for the rounded corners*
1,1,$1+$1,$2,$3*
1,1,$1+$1,$4,$5*
1,1,$1+$1,$6,$7*
1,1,$1+$1,$8,$9*
0 Add four rect primitives between the rounded corners*
20,1,$1+$1,$2,$3,$4,$5,0*
20,1,$1+$1,$4,$5,$6,$7,0*
20,1,$1+$1,$6,$7,$8,$9,0*
20,1,$1+$1,$8,$9,$2,$3,0*%
%AMFreePoly0*
4,1,15,1.100000,0.175000,0.750000,0.175000,0.750000,-0.175000,1.100000,-0.175000,1.100000,-0.475000,0.750000,-0.475000,-0.750000,-0.475000,-1.100000,-0.475000,-1.100000,-0.175000,-0.750000,-0.175000,-0.750000,0.175000,-1.100000,0.175000,-1.100000,0.475000,1.100000,0.475000,1.100000,0.175000,1.100000,0.175000,$1*%
G04 Aperture macros list end*
%ADD10C,0.010000*%
%ADD11RoundRect,0.250000X0.250000X-0.325000X0.250000X0.325000X-0.250000X0.325000X-0.250000X-0.325000X0*%
%ADD12C,1.800000*%
%ADD13C,5.600000*%
%ADD14RoundRect,0.250000X-0.350000X-0.625000X0.350000X-0.625000X0.350000X0.625000X-0.350000X0.625000X0*%
%ADD15O,1.200000X1.750000*%
%ADD16C,0.660000*%
%ADD17O,1.000000X0.580000*%
%ADD18C,1.100000*%
%ADD19R,1.000000X1.000000*%
%ADD20C,1.000000*%
%ADD21C,0.990600*%
%ADD22RoundRect,0.135000X0.185000X-0.135000X0.185000X0.135000X-0.185000X0.135000X-0.185000X-0.135000X0*%
%ADD23RoundRect,0.150000X0.587500X0.150000X-0.587500X0.150000X-0.587500X-0.150000X0.587500X-0.150000X0*%
%ADD24RoundRect,0.140000X-0.170000X0.140000X-0.170000X-0.140000X0.170000X-0.140000X0.170000X0.140000X0*%
%ADD25RoundRect,0.135000X-0.135000X-0.185000X0.135000X-0.185000X0.135000X0.185000X-0.135000X0.185000X0*%
%ADD26RoundRect,0.135000X0.135000X0.185000X-0.135000X0.185000X-0.135000X-0.185000X0.135000X-0.185000X0*%
%ADD27RoundRect,0.140000X-0.140000X-0.170000X0.140000X-0.170000X0.140000X0.170000X-0.140000X0.170000X0*%
%ADD28RoundRect,0.135000X-0.185000X0.135000X-0.185000X-0.135000X0.185000X-0.135000X0.185000X0.135000X0*%
%ADD29RoundRect,0.147500X-0.172500X0.147500X-0.172500X-0.147500X0.172500X-0.147500X0.172500X0.147500X0*%
%ADD30RoundRect,0.112500X-0.112500X-0.237500X0.112500X-0.237500X0.112500X0.237500X-0.112500X0.237500X0*%
%ADD31RoundRect,0.140000X0.140000X0.170000X-0.140000X0.170000X-0.140000X-0.170000X0.140000X-0.170000X0*%
%ADD32R,1.500000X5.080000*%
%ADD33RoundRect,0.140000X0.170000X-0.140000X0.170000X0.140000X-0.170000X0.140000X-0.170000X-0.140000X0*%
%ADD34RoundRect,0.147500X0.147500X0.172500X-0.147500X0.172500X-0.147500X-0.172500X0.147500X-0.172500X0*%
%ADD35R,0.550000X0.950000*%
%ADD36RoundRect,0.102000X-0.200000X0.300000X-0.200000X-0.300000X0.200000X-0.300000X0.200000X0.300000X0*%
%ADD37RoundRect,0.100000X0.100000X-0.225000X0.100000X0.225000X-0.100000X0.225000X-0.100000X-0.225000X0*%
%ADD38RoundRect,0.062500X0.062500X-0.375000X0.062500X0.375000X-0.062500X0.375000X-0.062500X-0.375000X0*%
%ADD39RoundRect,0.062500X0.375000X-0.062500X0.375000X0.062500X-0.375000X0.062500X-0.375000X-0.062500X0*%
%ADD40R,3.450000X3.450000*%
%ADD41RoundRect,0.150000X-0.512500X-0.150000X0.512500X-0.150000X0.512500X0.150000X-0.512500X0.150000X0*%
%ADD42RoundRect,0.147500X0.172500X-0.147500X0.172500X0.147500X-0.172500X0.147500X-0.172500X-0.147500X0*%
%ADD43FreePoly0,0.000000*%
%ADD44RoundRect,0.075000X-0.100000X-0.075000X0.100000X-0.075000X0.100000X0.075000X-0.100000X0.075000X0*%
%ADD45RoundRect,0.058750X-0.376250X-0.058750X0.376250X-0.058750X0.376250X0.058750X-0.376250X0.058750X0*%
%ADD46RoundRect,0.062500X-0.300000X-0.062500X0.300000X-0.062500X0.300000X0.062500X-0.300000X0.062500X0*%
%ADD47R,0.900000X1.600000*%
%ADD48RoundRect,0.150000X0.150000X-0.512500X0.150000X0.512500X-0.150000X0.512500X-0.150000X-0.512500X0*%
%ADD49RoundRect,0.250000X-0.350000X0.450000X-0.350000X-0.450000X0.350000X-0.450000X0.350000X0.450000X0*%
%ADD50RoundRect,0.075000X-0.725000X-0.075000X0.725000X-0.075000X0.725000X0.075000X-0.725000X0.075000X0*%
%ADD51RoundRect,0.075000X-0.075000X-0.725000X0.075000X-0.725000X0.075000X0.725000X-0.075000X0.725000X0*%
%ADD52RoundRect,0.062500X0.062500X0.275000X-0.062500X0.275000X-0.062500X-0.275000X0.062500X-0.275000X0*%
%ADD53RoundRect,0.062500X0.275000X0.062500X-0.275000X0.062500X-0.275000X-0.062500X0.275000X-0.062500X0*%
%ADD54RoundRect,0.102000X0.200000X-0.300000X0.200000X0.300000X-0.200000X0.300000X-0.200000X-0.300000X0*%
%ADD55RoundRect,0.250000X-0.325000X-0.650000X0.325000X-0.650000X0.325000X0.650000X-0.325000X0.650000X0*%
%ADD56RoundRect,0.062500X0.300000X0.062500X-0.300000X0.062500X-0.300000X-0.062500X0.300000X-0.062500X0*%
%ADD57RoundRect,0.175000X-0.725000X-0.175000X0.725000X-0.175000X0.725000X0.175000X-0.725000X0.175000X0*%
%ADD58RoundRect,0.200000X-0.700000X-0.200000X0.700000X-0.200000X0.700000X0.200000X-0.700000X0.200000X0*%
%ADD59FreePoly0,90.000000*%
%ADD60RoundRect,0.075000X0.075000X-0.100000X0.075000X0.100000X-0.075000X0.100000X-0.075000X-0.100000X0*%
%ADD61RoundRect,0.058750X0.058750X-0.376250X0.058750X0.376250X-0.058750X0.376250X-0.058750X-0.376250X0*%
%ADD62R,0.300000X0.450000*%
%ADD63R,0.450000X0.300000*%
%ADD64RoundRect,0.150000X0.325000X0.150000X-0.325000X0.150000X-0.325000X-0.150000X0.325000X-0.150000X0*%
%ADD65RoundRect,0.150000X0.150000X0.325000X-0.150000X0.325000X-0.150000X-0.325000X0.150000X-0.325000X0*%
%ADD66R,0.850000X0.650000*%
%ADD67R,0.650000X0.850000*%
%ADD68R,0.762000X0.304800*%
%ADD69R,2.387600X3.098800*%
%ADD70RoundRect,0.250000X-0.500000X0.950000X-0.500000X-0.950000X0.500000X-0.950000X0.500000X0.950000X0*%
%ADD71RoundRect,0.250000X-0.500000X0.275000X-0.500000X-0.275000X0.500000X-0.275000X0.500000X0.275000X0*%
%ADD72RoundRect,0.100000X0.400000X0.400000X-0.400000X0.400000X-0.400000X-0.400000X0.400000X-0.400000X0*%
%ADD73RoundRect,0.105000X0.420000X0.995000X-0.420000X0.995000X-0.420000X-0.995000X0.420000X-0.995000X0*%
G04 APERTURE END LIST*
D10*
%TO.C,U16*%
X23475000Y-80875000D02*
X22875000Y-80875000D01*
X22875000Y-80625000D01*
X22824999Y-80625000D01*
X22825000Y-80875000D01*
X22225000Y-80875000D01*
X22224999Y-80625000D01*
X22015000Y-80625000D01*
X22015000Y-78075000D01*
X23475000Y-78075000D01*
X23475000Y-80875000D01*
G36*
X23475000Y-80875000D02*
G01*
X22875000Y-80875000D01*
X22875000Y-80625000D01*
X22824999Y-80625000D01*
X22825000Y-80875000D01*
X22225000Y-80875000D01*
X22224999Y-80625000D01*
X22015000Y-80625000D01*
X22015000Y-78075000D01*
X23475000Y-78075000D01*
X23475000Y-80875000D01*
G37*
X25015000Y-80625000D02*
X24775001Y-80625000D01*
X24775000Y-80875000D01*
X24175000Y-80875000D01*
X24175001Y-80625000D01*
X24125000Y-80625000D01*
X24125000Y-80875000D01*
X23525000Y-80875000D01*
X23525000Y-78075000D01*
X25015000Y-78075000D01*
X25015000Y-80625000D01*
G36*
X25015000Y-80625000D02*
G01*
X24775001Y-80625000D01*
X24775000Y-80875000D01*
X24175000Y-80875000D01*
X24175001Y-80625000D01*
X24125000Y-80625000D01*
X24125000Y-80875000D01*
X23525000Y-80875000D01*
X23525000Y-78075000D01*
X25015000Y-78075000D01*
X25015000Y-80625000D01*
G37*
%TO.C,U14*%
X37649999Y-76000000D02*
X37700000Y-76000000D01*
X37700000Y-75750000D01*
X38300000Y-75750000D01*
X38300000Y-78550000D01*
X36810000Y-78550000D01*
X36810000Y-76000000D01*
X37049999Y-76000000D01*
X37050000Y-75750000D01*
X37650000Y-75750000D01*
X37649999Y-76000000D01*
G36*
X37649999Y-76000000D02*
G01*
X37700000Y-76000000D01*
X37700000Y-75750000D01*
X38300000Y-75750000D01*
X38300000Y-78550000D01*
X36810000Y-78550000D01*
X36810000Y-76000000D01*
X37049999Y-76000000D01*
X37050000Y-75750000D01*
X37650000Y-75750000D01*
X37649999Y-76000000D01*
G37*
X38950000Y-76000000D02*
X39000001Y-76000000D01*
X39000000Y-75750000D01*
X39600000Y-75750000D01*
X39600001Y-76000000D01*
X39810000Y-76000000D01*
X39810000Y-78550000D01*
X38350000Y-78550000D01*
X38350000Y-75750000D01*
X38950000Y-75750000D01*
X38950000Y-76000000D01*
G36*
X38950000Y-76000000D02*
G01*
X39000001Y-76000000D01*
X39000000Y-75750000D01*
X39600000Y-75750000D01*
X39600001Y-76000000D01*
X39810000Y-76000000D01*
X39810000Y-78550000D01*
X38350000Y-78550000D01*
X38350000Y-75750000D01*
X38950000Y-75750000D01*
X38950000Y-76000000D01*
G37*
%TO.C,U11*%
X46225000Y-83175000D02*
X46275000Y-83175000D01*
X46275000Y-82925000D01*
X46875000Y-82925000D01*
X46875000Y-85725000D01*
X45385000Y-85725000D01*
X45385000Y-83175000D01*
X45625000Y-83175000D01*
X45625000Y-82925000D01*
X46225000Y-82925000D01*
X46225000Y-83175000D01*
G36*
X46225000Y-83175000D02*
G01*
X46275000Y-83175000D01*
X46275000Y-82925000D01*
X46875000Y-82925000D01*
X46875000Y-85725000D01*
X45385000Y-85725000D01*
X45385000Y-83175000D01*
X45625000Y-83175000D01*
X45625000Y-82925000D01*
X46225000Y-82925000D01*
X46225000Y-83175000D01*
G37*
X47525000Y-83175000D02*
X47575000Y-83175000D01*
X47575000Y-82925000D01*
X48175000Y-82925000D01*
X48175000Y-83175000D01*
X48385000Y-83175000D01*
X48385000Y-85725000D01*
X46925000Y-85725000D01*
X46925000Y-82925000D01*
X47525000Y-82925000D01*
X47525000Y-83175000D01*
G36*
X47525000Y-83175000D02*
G01*
X47575000Y-83175000D01*
X47575000Y-82925000D01*
X48175000Y-82925000D01*
X48175000Y-83175000D01*
X48385000Y-83175000D01*
X48385000Y-85725000D01*
X46925000Y-85725000D01*
X46925000Y-82925000D01*
X47525000Y-82925000D01*
X47525000Y-83175000D01*
G37*
%TD*%
D11*
%TO.C,X2*%
X22200000Y-53250000D03*
X22200000Y-51500000D03*
X23600000Y-51500000D03*
X23600000Y-53250000D03*
%TD*%
D12*
%TO.C,J6*%
X42800000Y-90099998D03*
X42800000Y-87599998D03*
X42800000Y-85099998D03*
X42800000Y-82599997D03*
X42800000Y-80099997D03*
X42800000Y-77599997D03*
X42800000Y-75100000D03*
X42800000Y-72600000D03*
X42800000Y-70100000D03*
%TD*%
D13*
%TO.C,H2*%
X23000000Y-97000000D03*
%TD*%
D14*
%TO.C,J8*%
X28500000Y-96350000D03*
D15*
X30500000Y-96350000D03*
%TD*%
D16*
%TO.C,J4*%
X34950000Y-96650000D03*
D17*
X42450000Y-96650000D03*
D18*
X36300000Y-94500000D03*
X36300000Y-98800000D03*
X41100000Y-94500000D03*
X41100000Y-98800000D03*
%TD*%
D13*
%TO.C,H3*%
X47000000Y-97000000D03*
%TD*%
%TO.C,H4*%
X47000000Y-23000000D03*
%TD*%
%TO.C,H5*%
X47000000Y-65200000D03*
%TD*%
D19*
%TO.C,J9*%
X37240000Y-66200000D03*
D20*
X37240000Y-64929999D03*
X38510001Y-66200000D03*
X38510000Y-64930000D03*
X39780000Y-66200000D03*
X39780000Y-64930000D03*
X41050000Y-66200000D03*
X41050000Y-64930000D03*
X42319999Y-66200000D03*
X42320000Y-64930000D03*
%TD*%
D19*
%TO.C,J10*%
X31210000Y-66200000D03*
D20*
X31210000Y-64929999D03*
X32480001Y-66200000D03*
X32480000Y-64930000D03*
X33750000Y-66200000D03*
X33750000Y-64930000D03*
%TD*%
D21*
%TO.C,J1*%
X47984000Y-56060000D03*
X49000000Y-61140000D03*
X46968000Y-61140000D03*
%TD*%
D19*
%TO.C,J2*%
X21350000Y-58630000D03*
D20*
X21350000Y-59900000D03*
%TD*%
D12*
%TO.C,J7*%
X27499999Y-71700000D03*
X27499999Y-74200000D03*
X27499999Y-76700000D03*
X27499999Y-79200001D03*
X27499999Y-81700001D03*
X27499999Y-84200001D03*
X27499999Y-86699998D03*
X27499999Y-89199998D03*
X27499999Y-91699998D03*
%TD*%
D13*
%TO.C,H1*%
X23000000Y-23000000D03*
%TD*%
D22*
%TO.C,R9*%
X39400000Y-93709999D03*
X39400000Y-92690001D03*
%TD*%
D23*
%TO.C,Q2*%
X32437500Y-80750000D03*
X32437500Y-82650000D03*
X30562499Y-81700000D03*
%TD*%
D22*
%TO.C,R15*%
X44600000Y-86120000D03*
X44600000Y-85100000D03*
%TD*%
%TO.C,R31*%
X25800000Y-80619998D03*
X25800000Y-79600000D03*
%TD*%
D24*
%TO.C,C39*%
X40117623Y-27310357D03*
X40117623Y-28270357D03*
%TD*%
D25*
%TO.C,R51*%
X44630002Y-69200000D03*
X45650000Y-69200000D03*
%TD*%
D22*
%TO.C,R22*%
X36850000Y-81099999D03*
X36850000Y-80080001D03*
%TD*%
D26*
%TO.C,R47*%
X40910000Y-84900000D03*
X39890000Y-84900000D03*
%TD*%
D27*
%TO.C,C40*%
X38446616Y-29971287D03*
X39406616Y-29971287D03*
%TD*%
D22*
%TO.C,R54*%
X33200000Y-36000000D03*
X33200000Y-34980002D03*
%TD*%
D28*
%TO.C,R52*%
X48650000Y-73490001D03*
X48650000Y-74509999D03*
%TD*%
D25*
%TO.C,R7*%
X45500000Y-51700000D03*
X46519998Y-51700000D03*
%TD*%
D27*
%TO.C,C24*%
X22344999Y-86200000D03*
X23304999Y-86200000D03*
%TD*%
D29*
%TO.C,FB2*%
X33200000Y-33115000D03*
X33200000Y-34085000D03*
%TD*%
D30*
%TO.C,D2*%
X46200000Y-73650000D03*
X47500000Y-73650000D03*
X46850000Y-75650000D03*
%TD*%
D27*
%TO.C,C16*%
X23590000Y-59550000D03*
X24550000Y-59550000D03*
%TD*%
%TO.C,C26*%
X47846477Y-31788664D03*
X48806477Y-31788664D03*
%TD*%
D28*
%TO.C,R36*%
X21200000Y-77690001D03*
X21200000Y-78709999D03*
%TD*%
%TO.C,R43*%
X24324999Y-86990000D03*
X24324999Y-88010000D03*
%TD*%
D31*
%TO.C,C18*%
X36800000Y-72925000D03*
X35840000Y-72925000D03*
%TD*%
D22*
%TO.C,R29*%
X23800000Y-76509999D03*
X23800000Y-75490001D03*
%TD*%
D32*
%TO.C,J3*%
X35000000Y-22900000D03*
X30750000Y-22900000D03*
X39250000Y-22900000D03*
%TD*%
D33*
%TO.C,C37*%
X42000000Y-28300000D03*
X42000000Y-27340000D03*
%TD*%
D28*
%TO.C,R32*%
X25800000Y-77690002D03*
X25800000Y-78710000D03*
%TD*%
D25*
%TO.C,R44*%
X39890000Y-88700000D03*
X40910000Y-88700000D03*
%TD*%
%TO.C,R8*%
X45490001Y-50700000D03*
X46509999Y-50700000D03*
%TD*%
D24*
%TO.C,C20*%
X34400000Y-88440000D03*
X34400000Y-89400000D03*
%TD*%
D27*
%TO.C,C10*%
X47670000Y-43250000D03*
X48630000Y-43250000D03*
%TD*%
D33*
%TO.C,C8*%
X25100000Y-67080000D03*
X25100000Y-66120000D03*
%TD*%
D34*
%TO.C,L1*%
X42900000Y-29200000D03*
X41930000Y-29200000D03*
%TD*%
D31*
%TO.C,C34*%
X48576887Y-30866862D03*
X47616887Y-30866862D03*
%TD*%
D35*
%TO.C,U4*%
X24350000Y-28400000D03*
X25600000Y-28400000D03*
X26850000Y-28400000D03*
X28100000Y-28400000D03*
X28100000Y-30550000D03*
X26850000Y-30550000D03*
X25600000Y-30550000D03*
X24350000Y-30550000D03*
%TD*%
D25*
%TO.C,R48*%
X36550000Y-30360000D03*
X37570000Y-30360000D03*
%TD*%
D36*
%TO.C,U16*%
X22524999Y-77525000D03*
X23175000Y-77525000D03*
X23825000Y-77525000D03*
X24475001Y-77525000D03*
%TD*%
D28*
%TO.C,R49*%
X29775000Y-87507503D03*
X29775000Y-88527501D03*
%TD*%
D27*
%TO.C,C35*%
X34726989Y-31288960D03*
X35686989Y-31288960D03*
%TD*%
D37*
%TO.C,U21*%
X47600000Y-72300000D03*
X46950000Y-72299999D03*
X46300000Y-72300000D03*
X46300000Y-70400000D03*
X47600000Y-70400000D03*
%TD*%
D24*
%TO.C,C22*%
X21114999Y-85773750D03*
X21114999Y-86733750D03*
%TD*%
D38*
%TO.C,U8*%
X44812500Y-35475000D03*
X44312500Y-35475000D03*
X43812500Y-35475000D03*
X43312500Y-35475000D03*
X42812500Y-35475000D03*
X42312500Y-35475000D03*
X41812500Y-35475000D03*
X41312500Y-35475000D03*
D39*
X40625000Y-34787500D03*
X40625000Y-34287500D03*
X40625000Y-33787500D03*
X40625000Y-33287500D03*
X40625000Y-32787500D03*
X40625000Y-32287500D03*
X40625000Y-31787500D03*
X40625000Y-31287500D03*
D38*
X41312500Y-30600000D03*
X41812500Y-30600000D03*
X42312500Y-30600000D03*
X42812500Y-30600000D03*
X43312500Y-30600000D03*
X43812500Y-30600000D03*
X44312500Y-30600000D03*
X44812500Y-30600000D03*
D39*
X45500000Y-31287500D03*
X45500000Y-31787500D03*
X45500000Y-32287500D03*
X45500000Y-32787500D03*
X45500000Y-33287500D03*
X45500000Y-33787500D03*
X45500000Y-34287500D03*
X45500000Y-34787500D03*
D40*
X43062500Y-33037500D03*
%TD*%
D41*
%TO.C,U17*%
X30654999Y-91429999D03*
X30654999Y-90480000D03*
X30654999Y-89530001D03*
X32929999Y-89530001D03*
X32929999Y-91429999D03*
%TD*%
D28*
%TO.C,R23*%
X36050000Y-76080002D03*
X36050000Y-77100000D03*
%TD*%
D22*
%TO.C,R24*%
X36050000Y-79009998D03*
X36050000Y-77990000D03*
%TD*%
D28*
%TO.C,R11*%
X20900000Y-43790000D03*
X20900000Y-44810000D03*
%TD*%
D42*
%TO.C,FB1*%
X25800000Y-48085000D03*
X25800000Y-47115000D03*
%TD*%
D43*
%TO.C,Q3*%
X32050000Y-85050000D03*
D44*
X31125000Y-84075000D03*
D45*
X32090000Y-84075000D03*
D44*
X32975000Y-84075000D03*
%TD*%
D31*
%TO.C,C33*%
X46199525Y-27040563D03*
X45239525Y-27040563D03*
%TD*%
D28*
%TO.C,R40*%
X25324999Y-89690000D03*
X25324999Y-90710000D03*
%TD*%
D34*
%TO.C,L5*%
X39170000Y-27500000D03*
X38200000Y-27500000D03*
%TD*%
D28*
%TO.C,R42*%
X24324999Y-88890000D03*
X24324999Y-89910000D03*
%TD*%
D27*
%TO.C,C5*%
X21720000Y-50125000D03*
X22680000Y-50125000D03*
%TD*%
D25*
%TO.C,R6*%
X45500000Y-49699999D03*
X46519998Y-49699999D03*
%TD*%
D22*
%TO.C,R38*%
X29925000Y-93874998D03*
X29925000Y-92855000D03*
%TD*%
D46*
%TO.C,U15*%
X22187499Y-74550000D03*
X22187500Y-74050000D03*
X22187500Y-73550000D03*
X22187499Y-73050000D03*
X24212501Y-73050000D03*
X24212500Y-73550000D03*
X24212500Y-74050000D03*
X24212501Y-74550000D03*
D47*
X23200000Y-73800000D03*
%TD*%
D28*
%TO.C,R19*%
X49200000Y-87289999D03*
X49200000Y-88309999D03*
%TD*%
D22*
%TO.C,R10*%
X38400000Y-93719998D03*
X38400000Y-92700000D03*
%TD*%
D34*
%TO.C,L7*%
X37285000Y-27500000D03*
X36315000Y-27500000D03*
%TD*%
D22*
%TO.C,R17*%
X45400000Y-88319999D03*
X45400000Y-87299999D03*
%TD*%
%TO.C,R39*%
X34100000Y-93509999D03*
X34100000Y-92490001D03*
%TD*%
D31*
%TO.C,C6*%
X22680000Y-54725000D03*
X21720000Y-54725000D03*
%TD*%
D22*
%TO.C,R26*%
X39600000Y-81100000D03*
X39600000Y-80080002D03*
%TD*%
D28*
%TO.C,R34*%
X22200000Y-75490001D03*
X22200000Y-76509999D03*
%TD*%
D48*
%TO.C,U18*%
X23064999Y-90382499D03*
X22114999Y-90382499D03*
X21164999Y-90382499D03*
X21164999Y-88107499D03*
X23064999Y-88107499D03*
%TD*%
D31*
%TO.C,C27*%
X46199429Y-28933495D03*
X45239429Y-28933495D03*
%TD*%
D42*
%TO.C,L6*%
X37073792Y-29435841D03*
X37073792Y-28465841D03*
%TD*%
D24*
%TO.C,C7*%
X25100000Y-69520000D03*
X25100000Y-70480000D03*
%TD*%
D49*
%TO.C,Y1*%
X48926477Y-33288663D03*
X48926477Y-35488663D03*
X47226477Y-35488663D03*
X47226477Y-33288663D03*
%TD*%
D25*
%TO.C,R12*%
X38490000Y-32800000D03*
X39510000Y-32800000D03*
%TD*%
D24*
%TO.C,C41*%
X36135334Y-28450958D03*
X36135334Y-29410958D03*
%TD*%
D31*
%TO.C,C9*%
X25430000Y-27150000D03*
X24470000Y-27150000D03*
%TD*%
D22*
%TO.C,R37*%
X33100000Y-93659998D03*
X33100000Y-92640000D03*
%TD*%
D31*
%TO.C,C11*%
X46200000Y-28000000D03*
X45240000Y-28000000D03*
%TD*%
D33*
%TO.C,C12*%
X43304615Y-37710439D03*
X43304615Y-36750439D03*
%TD*%
D50*
%TO.C,U1*%
X27350000Y-57900000D03*
X27350000Y-57400000D03*
X27350000Y-56900000D03*
X27350000Y-56400000D03*
X27350000Y-55900000D03*
X27350000Y-55400000D03*
X27350000Y-54900000D03*
X27350000Y-54400000D03*
X27350000Y-53900000D03*
X27350000Y-53400000D03*
X27350000Y-52900000D03*
X27350000Y-52400000D03*
X27350000Y-51900000D03*
X27350000Y-51400000D03*
X27350000Y-50900000D03*
X27350000Y-50400000D03*
X27350000Y-49900000D03*
X27350000Y-49400000D03*
X27350000Y-48900000D03*
X27350000Y-48400000D03*
X27350000Y-47900000D03*
X27350000Y-47400000D03*
X27350000Y-46900000D03*
X27350000Y-46400000D03*
X27350000Y-45900000D03*
D51*
X29025000Y-44225000D03*
X29525000Y-44225000D03*
X30025000Y-44225000D03*
X30525000Y-44225000D03*
X31025000Y-44225000D03*
X31525000Y-44225000D03*
X32025000Y-44225000D03*
X32525000Y-44225000D03*
X33025000Y-44225000D03*
X33525000Y-44225000D03*
X34025000Y-44225000D03*
X34525000Y-44225000D03*
X35025000Y-44225000D03*
X35525000Y-44225000D03*
X36025000Y-44225000D03*
X36525000Y-44225000D03*
X37025000Y-44225000D03*
X37525000Y-44225000D03*
X38025000Y-44225000D03*
X38525000Y-44225000D03*
X39025000Y-44225000D03*
X39525000Y-44225000D03*
X40025000Y-44225000D03*
X40525000Y-44225000D03*
X41025000Y-44225000D03*
D50*
X42700000Y-45900000D03*
X42700000Y-46400000D03*
X42700000Y-46900000D03*
X42700000Y-47400000D03*
X42700000Y-47900000D03*
X42700000Y-48400000D03*
X42700000Y-48900000D03*
X42700000Y-49400000D03*
X42700000Y-49900000D03*
X42700000Y-50400000D03*
X42700000Y-50900000D03*
X42700000Y-51400000D03*
X42700000Y-51900000D03*
X42700000Y-52400000D03*
X42700000Y-52900000D03*
X42700000Y-53400000D03*
X42700000Y-53900000D03*
X42700000Y-54400000D03*
X42700000Y-54900000D03*
X42700000Y-55400000D03*
X42700000Y-55900000D03*
X42700000Y-56400000D03*
X42700000Y-56900000D03*
X42700000Y-57400000D03*
X42700000Y-57900000D03*
D51*
X41025000Y-59575000D03*
X40525000Y-59575000D03*
X40025000Y-59575000D03*
X39525000Y-59575000D03*
X39025000Y-59575000D03*
X38525000Y-59575000D03*
X38025000Y-59575000D03*
X37525000Y-59575000D03*
X37025000Y-59575000D03*
X36525000Y-59575000D03*
X36025000Y-59575000D03*
X35525000Y-59575000D03*
X35025000Y-59575000D03*
X34525000Y-59575000D03*
X34025000Y-59575000D03*
X33525000Y-59575000D03*
X33025000Y-59575000D03*
X32525000Y-59575000D03*
X32025000Y-59575000D03*
X31525000Y-59575000D03*
X31025000Y-59575000D03*
X30525000Y-59575000D03*
X30025000Y-59575000D03*
X29525000Y-59575000D03*
X29025000Y-59575000D03*
%TD*%
D27*
%TO.C,C29*%
X38450000Y-31830000D03*
X39410000Y-31830000D03*
%TD*%
D23*
%TO.C,U6*%
X48700000Y-40050000D03*
X48700000Y-41950000D03*
X46824999Y-41000000D03*
%TD*%
D27*
%TO.C,C21*%
X27190000Y-94600000D03*
X28150000Y-94600000D03*
%TD*%
D25*
%TO.C,R4*%
X45490001Y-53800000D03*
X46509999Y-53800000D03*
%TD*%
D52*
%TO.C,U9*%
X25437501Y-60737500D03*
X24937501Y-60737500D03*
X24437501Y-60737500D03*
X23937501Y-60737500D03*
X23437501Y-60737500D03*
X22937501Y-60737500D03*
X22437501Y-60737500D03*
D53*
X21925002Y-62000000D03*
D52*
X22437501Y-63262500D03*
X22937501Y-63262500D03*
X23437501Y-63262500D03*
X23937501Y-63262500D03*
X24437501Y-63262500D03*
X24937501Y-63262500D03*
X25437501Y-63262500D03*
D53*
X25950000Y-62000000D03*
%TD*%
D54*
%TO.C,U14*%
X39300001Y-79100000D03*
X38650000Y-79100000D03*
X38000000Y-79100000D03*
X37349999Y-79100000D03*
%TD*%
D29*
%TO.C,L4*%
X41059656Y-27279423D03*
X41059656Y-28249423D03*
%TD*%
D24*
%TO.C,C2*%
X24500000Y-47020000D03*
X24500000Y-47980000D03*
%TD*%
D42*
%TO.C,L8*%
X35300000Y-27400000D03*
X35300000Y-26430000D03*
%TD*%
D22*
%TO.C,R33*%
X21200000Y-76509999D03*
X21200000Y-75490001D03*
%TD*%
D55*
%TO.C,C23*%
X22249999Y-92500000D03*
X25199999Y-92500000D03*
%TD*%
D24*
%TO.C,C1*%
X23500000Y-47020000D03*
X23500000Y-47980000D03*
%TD*%
D31*
%TO.C,C14*%
X48580000Y-28000000D03*
X47620000Y-28000000D03*
%TD*%
D34*
%TO.C,L2*%
X39400000Y-30897500D03*
X38430000Y-30897500D03*
%TD*%
D28*
%TO.C,R27*%
X40650001Y-76090001D03*
X40650001Y-77109999D03*
%TD*%
D56*
%TO.C,U13*%
X39787501Y-82100000D03*
X39787500Y-82600000D03*
X39787500Y-83100000D03*
X39787501Y-83600000D03*
X37762499Y-83600000D03*
X37762500Y-83100000D03*
X37762500Y-82600000D03*
X37762499Y-82100000D03*
D47*
X38775000Y-82850000D03*
%TD*%
D22*
%TO.C,R16*%
X49200000Y-86110000D03*
X49200000Y-85090000D03*
%TD*%
D57*
%TO.C,U5*%
X22050000Y-41000000D03*
D58*
X22050000Y-39900000D03*
X22050000Y-38800000D03*
X22050000Y-37700000D03*
X22050000Y-36600000D03*
X22050000Y-35500000D03*
X22050000Y-34400000D03*
X22050000Y-33300000D03*
D57*
X22050000Y-32200000D03*
X31550000Y-32200000D03*
D58*
X31550000Y-33300000D03*
X31550000Y-34400000D03*
X31550000Y-35500000D03*
X31550000Y-36600000D03*
X31550000Y-37700000D03*
X31550000Y-38800000D03*
X31550000Y-39900000D03*
D57*
X31550000Y-41000000D03*
%TD*%
D31*
%TO.C,C4*%
X24060000Y-45400000D03*
X23100000Y-45400000D03*
%TD*%
D22*
%TO.C,R28*%
X40650000Y-79009998D03*
X40650000Y-77990000D03*
%TD*%
D24*
%TO.C,C43*%
X34128426Y-35032033D03*
X34128426Y-35992033D03*
%TD*%
D22*
%TO.C,R20*%
X48200000Y-88310000D03*
X48200000Y-87290000D03*
%TD*%
D24*
%TO.C,C42*%
X35217736Y-28446743D03*
X35217736Y-29406743D03*
%TD*%
D59*
%TO.C,Q1*%
X31850000Y-87392503D03*
D60*
X30875000Y-88317503D03*
D61*
X30875000Y-87352503D03*
D60*
X30875000Y-86467503D03*
%TD*%
D56*
%TO.C,U12*%
X48412500Y-89550000D03*
X48412500Y-90050000D03*
X48412500Y-90550000D03*
X48412500Y-91050000D03*
X46387500Y-91050000D03*
X46387500Y-90550000D03*
X46387500Y-90050000D03*
X46387500Y-89550000D03*
D47*
X47400000Y-90300000D03*
%TD*%
D62*
%TO.C,U10*%
X34500000Y-69375000D03*
X35000000Y-69375000D03*
X35500000Y-69375000D03*
X36000000Y-69375000D03*
D63*
X36525000Y-69900000D03*
X36525000Y-70400000D03*
X36525000Y-70900000D03*
X36525000Y-71400000D03*
D62*
X36000000Y-71925000D03*
X35500000Y-71925000D03*
X35000000Y-71925000D03*
X34500000Y-71925000D03*
D63*
X33975000Y-71400000D03*
X33975000Y-70900000D03*
X33975000Y-70400000D03*
X33975000Y-69900000D03*
%TD*%
D64*
%TO.C,U3*%
X23800000Y-66400000D03*
X23800000Y-67200000D03*
X23800000Y-68000000D03*
X23800000Y-68800000D03*
X23800000Y-69600000D03*
X23800000Y-70400000D03*
D65*
X22800000Y-70400001D03*
D64*
X21800000Y-70400000D03*
X21800000Y-69600000D03*
X21800000Y-68800000D03*
X21800000Y-68000000D03*
X21800000Y-67200000D03*
X21800000Y-66400000D03*
D65*
X22800000Y-66399999D03*
%TD*%
D31*
%TO.C,C30*%
X48577040Y-29902436D03*
X47617040Y-29902436D03*
%TD*%
D26*
%TO.C,R45*%
X40910000Y-87700000D03*
X39890000Y-87700000D03*
%TD*%
D27*
%TO.C,C28*%
X38487290Y-33752686D03*
X39447290Y-33752686D03*
%TD*%
D66*
%TO.C,D3*%
X47600000Y-52900000D03*
X47600000Y-53750000D03*
X49050000Y-52900000D03*
X49050000Y-53750000D03*
%TD*%
D28*
%TO.C,R53*%
X30210000Y-84590001D03*
X30210000Y-85609999D03*
%TD*%
D22*
%TO.C,R35*%
X21200000Y-80600001D03*
X21200000Y-79580003D03*
%TD*%
D67*
%TO.C,D4*%
X31125000Y-94365000D03*
X31975000Y-94365000D03*
X31125000Y-92915000D03*
X31975000Y-92915000D03*
%TD*%
D68*
%TO.C,U19*%
X44400000Y-39299900D03*
X44400000Y-40100000D03*
X44400000Y-40900100D03*
X44400000Y-41700200D03*
X40463000Y-41700200D03*
X40463000Y-40900100D03*
X40463000Y-40100000D03*
X40463000Y-39299900D03*
D69*
X42431500Y-40500050D03*
%TD*%
D48*
%TO.C,U2*%
X38550000Y-90137500D03*
X37600000Y-90137500D03*
X36650000Y-90137500D03*
X36650000Y-87862500D03*
X37600000Y-87862500D03*
X38550000Y-87862500D03*
%TD*%
D28*
%TO.C,R30*%
X24800000Y-75490001D03*
X24800000Y-76509999D03*
%TD*%
D26*
%TO.C,R50*%
X26659999Y-64650000D03*
X25640001Y-64650000D03*
%TD*%
D31*
%TO.C,C38*%
X38941596Y-28485589D03*
X37981596Y-28485589D03*
%TD*%
D28*
%TO.C,R14*%
X49200000Y-83190000D03*
X49200000Y-84210000D03*
%TD*%
D25*
%TO.C,R5*%
X45500000Y-48700000D03*
X46519998Y-48700000D03*
%TD*%
D42*
%TO.C,L3*%
X42964656Y-28280824D03*
X42964656Y-27310824D03*
%TD*%
D31*
%TO.C,C25*%
X47726477Y-36988664D03*
X46766477Y-36988664D03*
%TD*%
D33*
%TO.C,C15*%
X42373826Y-37759447D03*
X42373826Y-36799447D03*
%TD*%
D28*
%TO.C,R13*%
X44600000Y-83190000D03*
X44600000Y-84210000D03*
%TD*%
D70*
%TO.C,D1*%
X34750000Y-86300000D03*
D71*
X34750000Y-83925000D03*
%TD*%
D28*
%TO.C,R21*%
X37850000Y-80070002D03*
X37850000Y-81090000D03*
%TD*%
D27*
%TO.C,C31*%
X36600000Y-31300000D03*
X37560000Y-31300000D03*
%TD*%
D25*
%TO.C,R46*%
X39890000Y-85900000D03*
X40910000Y-85900000D03*
%TD*%
D28*
%TO.C,R25*%
X40600000Y-80080001D03*
X40600000Y-81099999D03*
%TD*%
D27*
%TO.C,C3*%
X24820000Y-49000000D03*
X25780000Y-49000000D03*
%TD*%
D33*
%TO.C,C44*%
X48850000Y-71730000D03*
X48850000Y-70770000D03*
%TD*%
D25*
%TO.C,R2*%
X42790001Y-98800000D03*
X43809999Y-98800000D03*
%TD*%
D31*
%TO.C,C32*%
X48573003Y-28957780D03*
X47613003Y-28957780D03*
%TD*%
D72*
%TO.C,J5*%
X35400000Y-37400000D03*
D73*
X33924999Y-38900000D03*
D72*
X35400000Y-40400000D03*
D73*
X36875001Y-38900000D03*
%TD*%
D27*
%TO.C,C36*%
X34728267Y-30348244D03*
X35688267Y-30348244D03*
%TD*%
D25*
%TO.C,R3*%
X45490001Y-52799999D03*
X46509999Y-52799999D03*
%TD*%
D33*
%TO.C,C13*%
X41433591Y-37770380D03*
X41433591Y-36810380D03*
%TD*%
D54*
%TO.C,U11*%
X47875000Y-86275000D03*
X47225000Y-86275000D03*
X46575000Y-86275000D03*
X45925000Y-86275000D03*
%TD*%
D28*
%TO.C,R41*%
X25324999Y-87780001D03*
X25324999Y-88800001D03*
%TD*%
D31*
%TO.C,C19*%
X34900000Y-72909000D03*
X33940000Y-72909000D03*
%TD*%
D26*
%TO.C,R1*%
X35300000Y-94500000D03*
X34280002Y-94500000D03*
%TD*%
D31*
%TO.C,C17*%
X24550000Y-64600000D03*
X23590000Y-64600000D03*
%TD*%
D28*
%TO.C,R18*%
X46400000Y-87290000D03*
X46400000Y-88310000D03*
%TD*%
M02*
